<?xml version="1.0" encoding="utf-8"?>
<!DOCTYPE svg PUBLIC "-//W3C//DTD SVG 1.1//EN" "http://www.w3.org/Graphics/SVG/1.1/DTD/svg11.dtd">
<svg version="1.1" id="Layer_1" xmlns="http://www.w3.org/2000/svg" xmlns:xlink="http://www.w3.org/1999/xlink" x="0px" y="0px"
	 width="1589.618px" height="449.76px" viewBox="0 0 1589.618 449.76" enable-background="new 0 0 1589.618 449.76"
	 xml:space="preserve">
<rect fill="none" width="1589.618" height="449.76"/>
<path fill="#FFFFFF" d="M595.604,165.542v21.312h-71.388c-3.348,0-6.146,1.036-8.441,3.112c-2.271,2.074-3.394,4.629-3.394,7.66
	c0,3.03,1.123,5.622,3.394,7.779c2.296,2.162,5.094,3.229,8.441,3.229h47.398c4.921,0,9.555,0.85,13.84,2.518
	c4.295,1.683,8.057,3.964,11.318,6.831c3.259,2.866,5.807,6.267,7.657,10.177c1.824,3.915,2.757,8.107,2.757,12.577
	c0,4.464-0.933,8.658-2.757,12.568c-1.851,3.911-4.398,7.329-7.657,10.292c-3.262,2.953-7.023,5.265-11.318,6.94
	c-4.285,1.67-8.919,2.517-13.84,2.517h-71.09v-21.312h71.09c3.526,0,6.418-1.03,8.699-3.111c2.264-2.077,3.434-4.717,3.434-7.894
	c0-3.045-1.17-5.599-3.434-7.667c-2.281-2.071-5.173-3.118-8.699-3.118h-47.398c-4.916,0-9.514-0.843-13.824-2.517
	c-4.326-1.667-8.026-3.984-11.199-6.94c-3.158-2.949-5.675-6.387-7.51-10.298c-1.854-3.906-2.757-8.099-2.757-12.571
	c0-4.467,0.902-8.655,2.757-12.572c1.835-3.904,4.352-7.306,7.51-10.178c3.173-2.875,6.873-5.143,11.199-6.821
	c4.311-1.677,8.908-2.513,13.824-2.513H595.604z"/>
<path fill="#FFFFFF" d="M673.834,165.542c8.253,0,15.94,1.391,23.051,4.191c7.115,2.792,13.393,6.615,18.833,11.483
	c5.438,4.874,9.693,10.548,12.773,17.01c3.063,6.466,4.623,13.452,4.623,20.948v53.88h-23.44v-53.88
	c0-4.467-0.933-8.659-2.814-12.57c-1.84-3.91-4.356-7.343-7.616-10.297c-3.244-2.948-7.068-5.269-11.452-6.948
	c-4.387-1.67-9.042-2.506-13.957-2.506c-4.921,0-9.528,0.836-13.854,2.506c-4.295,1.68-8.059,4-11.318,6.948
	c-3.229,2.954-5.782,6.387-7.616,10.297c-1.865,3.911-2.773,8.104-2.773,12.57v53.88h-23.435V122.434h23.435v54.115
	c4.905-3.504,10.39-6.223,16.449-8.134C660.778,166.498,667.181,165.542,673.834,165.542z"/>
<path fill="#FFFFFF" d="M739.957,219.656c0-7.502,1.543-14.49,4.607-20.948c3.065-6.469,7.273-12.143,12.625-17.003
	c5.361-4.865,11.63-8.706,18.847-11.496c7.214-2.802,14.83-4.192,22.919-4.192c8.269,0,15.94,1.391,23.056,4.192
	c7.083,2.79,13.378,6.631,18.817,11.496c5.454,4.86,9.687,10.534,12.773,17.003c3.08,6.458,4.618,13.446,4.618,20.948
	c0,7.337-1.538,14.274-4.618,20.824c-3.087,6.556-7.319,12.302-12.773,17.254c-5.439,4.952-11.734,8.816-18.817,11.625
	c-7.115,2.779-14.787,4.173-23.056,4.173c-8.089,0-15.705-1.394-22.919-4.173c-7.217-2.809-13.485-6.673-18.847-11.625
	c-5.352-4.952-9.56-10.698-12.625-17.254C741.5,233.931,739.957,226.993,739.957,219.656z M763.131,219.656
	c0,4.477,0.887,8.697,2.757,12.685c1.835,4.009,4.383,7.484,7.627,10.427c3.275,2.941,7.085,5.264,11.466,6.944
	c4.404,1.676,9.059,2.507,13.975,2.507c4.904,0,9.56-0.831,13.941-2.507c4.419-1.681,8.223-4.003,11.458-6.944
	c3.259-2.942,5.823-6.418,7.657-10.427c1.85-3.987,2.773-8.208,2.773-12.685c0-4.466-0.924-8.658-2.773-12.57
	c-1.834-3.905-4.398-7.343-7.657-10.289c-3.235-2.964-7.039-5.282-11.458-6.951c-4.382-1.681-9.037-2.517-13.941-2.517
	c-4.916,0-9.57,0.836-13.975,2.517c-4.381,1.669-8.19,3.987-11.466,6.951c-3.244,2.946-5.792,6.384-7.627,10.289
	C764.018,210.998,763.131,215.19,763.131,219.656z"/>
<path fill="#FFFFFF" d="M925.397,166.017c8.238,0,15.912,1.391,23.042,4.192c7.109,2.79,13.377,6.631,18.816,11.496
	c5.463,4.86,9.702,10.534,12.783,17.003c3.069,6.458,4.624,13.446,4.624,20.948c0,7.337-1.555,14.274-4.624,20.824
	c-3.081,6.556-7.32,12.302-12.783,17.254c-5.439,4.952-11.707,8.816-18.816,11.625c-7.13,2.779-14.804,4.173-23.042,4.173H889.84
	v43.107H866.4v-96.983c0-7.502,1.511-14.49,4.608-20.948c3.064-6.469,7.273-12.143,12.608-17.003
	c5.362-4.865,11.631-8.706,18.858-11.496C909.662,167.407,917.31,166.017,925.397,166.017z M939.355,249.712
	c4.356-1.681,8.207-4.003,11.436-6.944c3.259-2.942,5.798-6.418,7.633-10.427c1.865-3.987,2.798-8.208,2.798-12.685
	c0-4.466-0.933-8.658-2.798-12.57c-1.835-3.905-4.374-7.343-7.633-10.289c-3.229-2.964-7.079-5.282-11.436-6.951
	c-4.413-1.681-9.051-2.517-13.958-2.517c-4.936,0-9.528,0.836-13.865,2.517c-4.284,1.669-8.062,3.987-11.321,6.951
	c-3.23,2.946-5.764,6.384-7.629,10.289c-1.839,3.912-2.742,8.104-2.742,12.57v32.562h35.558
	C930.305,252.219,934.942,251.388,939.355,249.712z"/>
<path fill="#FFFFFF" d="M1015.985,122.434v150.621h-23.438V122.434H1015.985z"/>
<path fill="#FFFFFF" d="M1048.135,165.542v107.513h-23.184V165.542H1048.135z"/>
<path fill="#FFFFFF" d="M1060.391,198.462c3.036-6.466,7.242-12.128,12.636-16.994c5.351-4.882,11.63-8.712,18.833-11.497
	c7.185-2.794,14.834-4.194,22.922-4.194c8.237,0,15.909,1.4,23.025,4.194c7.141,2.785,13.393,6.615,18.842,11.497
	c5.438,4.866,9.708,10.528,12.805,16.994c3.049,6.462,4.594,13.444,4.594,20.953v53.877h-23.441v-53.877
	c0-4.463-0.917-8.657-2.768-12.567c-1.841-3.911-4.388-7.348-7.664-10.303c-3.244-2.957-7.037-5.27-11.451-6.951
	c-4.372-1.673-9.037-2.503-13.941-2.503c-4.921,0-9.544,0.83-13.824,2.503c-4.326,1.682-8.104,3.994-11.335,6.951
	c-3.242,2.955-5.796,6.392-7.63,10.303c-1.851,3.91-2.784,8.104-2.784,12.567v53.877h-23.455v-53.877
	C1055.753,211.906,1057.306,204.924,1060.391,198.462z"/>
<path fill="#FFFFFF" d="M1293.759,200.626c-4.296,7.416-10.133,13.616-17.51,18.549c7.377,4.958,13.214,11.177,17.51,18.672
	c4.301,7.503,6.463,15.653,6.463,24.43v10.778h-23.44v-10.778c0-4.47-0.948-8.644-2.787-12.564
	c-1.836-3.91-4.383-7.351-7.611-10.297c-3.262-2.953-7.023-5.26-11.35-6.951c-4.301-1.671-8.909-2.512-13.823-2.512
	c-4.921,0-9.561,0.841-13.958,2.512c-4.389,1.691-8.212,3.998-11.456,6.951c-3.256,2.946-5.823,6.387-7.658,10.297
	c-1.825,3.921-2.758,8.095-2.758,12.564v10.778h-23.436v-10.778V122.434h23.436v97.223c5.116-3.518,10.682-6.222,16.731-8.142
	c6.057-1.917,12.429-2.88,19.099-2.88c4.914,0,9.522-0.83,13.823-2.505c4.326-1.673,8.088-3.993,11.35-6.948
	c3.229-2.95,5.775-6.416,7.611-10.424c1.839-3.986,2.787-8.215,2.787-12.683v-10.533h23.44v10.533
	C1300.222,185.017,1298.06,193.188,1293.759,200.626z"/>
<rect x="243.869" y="166.254" fill="#FFFFFF" width="3" height="108"/>
<rect x="249.869" y="166.254" fill="#FFFFFF" width="2" height="108"/>
<rect x="259.869" y="166.254" fill="#FFFFFF" width="4" height="108"/>
<rect x="267.869" y="166.254" fill="#FFFFFF" width="2" height="108"/>
<rect x="272.869" y="166.254" fill="#FFFFFF" width="3" height="108"/>
<rect x="278.869" y="165.254" fill="#FFFFFF" width="7" height="109"/>
<rect x="292.869" y="166.254" fill="#FFFFFF" width="4" height="108"/>
<rect x="299.869" y="165.254" fill="#FFFFFF" width="5" height="109"/>
<rect x="309.869" y="166.254" fill="#FFFFFF" width="3" height="108"/>
<rect x="317.869" y="166.254" fill="#FFFFFF" width="5" height="108"/>
<rect x="331.869" y="166.254" fill="#FFFFFF" width="3" height="108"/>
<rect x="337.869" y="166.254" fill="#FFFFFF" width="3" height="108"/>
<rect x="354.869" y="166.254" fill="#FFFFFF" width="3" height="108"/>
<rect x="359.869" y="166.254" fill="#FFFFFF" width="3" height="108"/>
<rect x="347.869" y="166.254" fill="#FFFFFF" width="4" height="108"/>
<rect x="365.869" y="166.254" fill="#FFFFFF" width="2" height="108"/>
<rect x="369.869" y="166.254" fill="#FFFFFF" width="8" height="108"/>
<rect x="382.869" y="166.254" fill="#FFFFFF" width="3" height="108"/>
<rect x="387.869" y="166.254" fill="#FFFFFF" width="5" height="108"/>
<rect x="395.869" y="166.254" fill="#FFFFFF" width="5" height="108"/>
<rect x="405.869" y="166.254" fill="#FFFFFF" width="3" height="108"/>
<rect x="410.869" y="166.254" fill="#FFFFFF" width="3" height="108"/>
<rect x="422.869" y="166.254" fill="#FFFFFF" width="8" height="108"/>
<rect x="433.869" y="166.254" fill="#FFFFFF" width="2" height="108"/>
</svg>
