<?xml version="1.0" encoding="utf-8"?>
<!DOCTYPE svg PUBLIC "-//W3C//DTD SVG 1.1//EN" "http://www.w3.org/Graphics/SVG/1.1/DTD/svg11.dtd">
<svg version="1.1" id="Layer_1" xmlns="http://www.w3.org/2000/svg" xmlns:xlink="http://www.w3.org/1999/xlink" x="0px" y="0px"
	 width="1589.618px" height="449.76px" viewBox="0 0 1589.618 449.76" enable-background="new 0 0 1589.618 449.76"
	 xml:space="preserve">
<path fill="#FFFFFF" d="M533.187,144.819v31.601H427.335c-4.964,0-9.113,1.536-12.516,4.614c-3.367,3.075-5.032,6.864-5.032,11.358
		c0,4.493,1.665,8.336,5.032,11.534c3.404,3.206,7.553,4.788,12.516,4.788h70.28c7.297,0,14.168,1.26,20.522,3.734
		c6.368,2.495,11.947,5.878,16.782,10.129c4.832,4.25,8.61,9.293,11.354,15.09c2.705,5.805,4.088,12.021,4.088,18.649
		c0,6.619-1.383,12.838-4.088,18.635c-2.745,5.799-6.521,10.867-11.354,15.261c-4.837,4.379-10.414,7.807-16.782,10.29
		c-6.354,2.476-13.225,3.732-20.522,3.732h-105.41v-31.601h105.41c5.228,0,9.516-1.527,12.899-4.613
		c3.357-3.08,5.092-6.994,5.092-11.705c0-4.515-1.735-8.302-5.092-11.368c-3.382-3.071-7.67-4.623-12.899-4.623h-70.28
		c-7.289,0-14.107-1.25-20.498-3.732c-6.414-2.472-11.901-5.907-16.606-10.29c-4.683-4.373-8.415-9.47-11.136-15.27
		c-2.749-5.792-4.088-12.009-4.088-18.64c0-6.624,1.337-12.833,4.088-18.641c2.721-5.789,6.453-10.833,11.136-15.092
		c4.705-4.263,10.191-7.626,16.606-10.114c6.392-2.487,13.208-3.726,20.498-3.726H533.187z"/>
	<path fill="#FFFFFF" d="M649.184,144.819c12.237,0,23.635,2.063,34.179,6.214c10.55,4.14,19.859,9.809,27.925,17.027
		c8.063,7.227,14.372,15.64,18.939,25.222c4.542,9.588,6.855,19.946,6.855,31.061v79.892h-34.756v-79.892
		c0-6.624-1.383-12.839-4.173-18.638c-2.728-5.798-6.459-10.888-11.293-15.268c-4.81-4.371-10.48-7.813-16.981-10.302
		c-6.505-2.476-13.407-3.716-20.695-3.716c-7.297,0-14.128,1.24-20.542,3.716c-6.368,2.491-11.95,5.931-16.782,10.302
		c-4.788,4.38-8.573,9.47-11.293,15.268c-2.765,5.799-4.112,12.016-4.112,18.638v79.892h-34.749V80.899h34.749v80.24
		c7.273-5.196,15.406-9.227,24.39-12.061C629.825,146.236,639.319,144.819,649.184,144.819z"/>
	<path fill="#FFFFFF" d="M747.229,225.057c0-11.124,2.288-21.485,6.831-31.061c4.545-9.592,10.784-18.005,18.72-25.212
		c7.949-7.214,17.245-12.909,27.946-17.046c10.697-4.155,21.99-6.216,33.984-6.216c12.261,0,23.635,2.063,34.187,6.216
		c10.503,4.137,19.836,9.832,27.901,17.046c8.087,7.206,14.364,15.619,18.939,25.212c4.567,9.576,6.847,19.937,6.847,31.061
		c0,10.879-2.281,21.165-6.847,30.877c-4.577,9.721-10.852,18.241-18.939,25.584c-8.065,7.343-17.399,13.072-27.901,17.237
		c-10.55,4.121-21.926,6.188-34.187,6.188c-11.994,0-23.287-2.067-33.984-6.188c-10.701-4.165-19.995-9.895-27.946-17.237
		c-7.936-7.343-14.175-15.863-18.72-25.584C749.517,246.224,747.229,235.936,747.229,225.057z M781.591,225.057
		c0,6.638,1.315,12.896,4.088,18.809c2.721,5.944,6.499,11.097,11.309,15.461c4.856,4.361,10.505,7.805,17.001,10.296
		c6.53,2.485,13.432,3.717,20.722,3.717c7.271,0,14.175-1.232,20.671-3.717c6.552-2.493,12.193-5.936,16.99-10.296
		c4.832-4.362,8.634-9.516,11.354-15.461c2.743-5.912,4.112-12.171,4.112-18.809c0-6.622-1.37-12.838-4.112-18.638
		c-2.719-5.79-6.521-10.888-11.354-15.256c-4.797-4.395-10.437-7.832-16.99-10.307c-6.497-2.493-13.4-3.732-20.671-3.732
		c-7.289,0-14.19,1.24-20.722,3.732c-6.496,2.475-12.144,5.912-17.001,10.307c-4.81,4.368-8.588,9.466-11.309,15.256
		C782.906,212.219,781.591,218.435,781.591,225.057z"/>
	<path fill="#FFFFFF" d="M1022.194,145.523c12.215,0,23.594,2.063,34.166,6.216c10.541,4.137,19.835,9.832,27.9,17.046
		c8.1,7.206,14.386,15.619,18.954,25.212c4.551,9.576,6.856,19.937,6.856,31.061c0,10.879-2.306,21.165-6.856,30.877
		c-4.568,9.721-10.854,18.241-18.954,25.584c-8.065,7.343-17.359,13.072-27.9,17.237c-10.572,4.121-21.951,6.188-34.166,6.188
		h-52.723v63.918h-34.756V225.057c0-11.124,2.24-21.485,6.833-31.061c4.543-9.592,10.784-18.005,18.695-25.212
		c7.951-7.214,17.246-12.909,27.962-17.046C998.862,147.584,1010.203,145.523,1022.194,145.523z M1042.89,269.623
		c6.459-2.493,12.169-5.936,16.957-10.296c4.832-4.362,8.597-9.516,11.318-15.461c2.765-5.912,4.149-12.171,4.149-18.809
		c0-6.622-1.383-12.838-4.149-18.638c-2.721-5.79-6.486-10.888-11.318-15.256c-4.788-4.395-10.496-7.832-16.957-10.307
		c-6.543-2.493-13.421-3.732-20.696-3.732c-7.319,0-14.128,1.24-20.559,3.732c-6.352,2.475-11.954,5.912-16.786,10.307
		c-4.789,4.368-8.547,9.466-11.312,15.256c-2.727,5.801-4.066,12.016-4.066,18.638v48.282h52.724
		C1029.471,273.341,1036.347,272.108,1042.89,269.623z"/>
	<path fill="#FFFFFF" d="M1156.515,80.899v223.336h-34.753V80.899H1156.515z"/>
	<path fill="#FFFFFF" d="M1204.186,144.819v159.417h-34.376V144.819H1204.186z"/>
	<path fill="#FFFFFF" d="M1222.359,193.631c4.502-9.588,10.738-17.983,18.736-25.198c7.934-7.239,17.245-12.918,27.925-17.047
		c10.654-4.143,21.995-6.219,33.988-6.219c12.214,0,23.589,2.076,34.141,6.219c10.589,4.13,19.859,9.809,27.938,17.047
		c8.063,7.215,14.395,15.611,18.987,25.198c4.521,9.582,6.812,19.934,6.812,31.068v79.887h-34.758V224.7
		c0-6.618-1.36-12.836-4.104-18.634c-2.73-5.799-6.506-10.895-11.364-15.277c-4.81-4.385-10.434-7.814-16.979-10.307
		c-6.483-2.481-13.4-3.711-20.671-3.711c-7.297,0-14.151,1.231-20.498,3.711c-6.415,2.494-12.016,5.922-16.807,10.307
		c-4.807,4.382-8.594,9.478-11.313,15.277c-2.745,5.798-4.128,12.016-4.128,18.634v79.887h-34.778V224.7
		C1215.482,213.566,1217.784,203.213,1222.359,193.631z"/>
	<path fill="#FFFFFF" d="M1568.39,196.84c-6.37,10.996-15.025,20.189-25.963,27.504c10.938,7.352,19.593,16.573,25.963,27.686
		c6.377,11.125,9.583,23.21,9.583,36.224v15.981h-34.756v-15.981c0-6.628-1.406-12.817-4.132-18.629
		c-2.723-5.798-6.499-10.9-11.285-15.268c-4.837-4.379-10.413-7.799-16.829-10.307c-6.377-2.478-13.21-3.725-20.496-3.725
		c-7.297,0-14.177,1.247-20.696,3.725c-6.508,2.507-12.177,5.928-16.987,10.307c-4.828,4.368-8.634,9.47-11.355,15.268
		c-2.706,5.814-4.09,12.003-4.09,18.629v15.981h-34.75v-15.981V80.899h34.75v144.159c7.586-5.216,15.839-9.226,24.808-12.073
		c8.981-2.842,18.429-4.27,28.319-4.27c7.286,0,14.119-1.231,20.496-3.714c6.415-2.481,11.993-5.921,16.829-10.302
		c4.788-4.374,8.563-9.513,11.285-15.456c2.727-5.91,4.132-12.181,4.132-18.806v-15.618h34.756v15.618
		C1577.973,173.696,1574.767,185.811,1568.39,196.84z"/>
	<rect x="11.645" y="145.874" fill="#FFFFFF" width="4.448" height="160.139"/>
	<rect x="20.542" y="145.874" fill="#FFFFFF" width="2.966" height="160.139"/>
	<rect x="35.37" y="145.874" fill="#FFFFFF" width="5.931" height="160.139"/>
	<rect x="47.232" y="145.874" fill="#FFFFFF" width="2.966" height="160.139"/>
	<rect x="54.646" y="145.874" fill="#FFFFFF" width="4.448" height="160.139"/>
	<rect x="63.542" y="144.392" fill="#FFFFFF" width="10.379" height="161.622"/>
	<rect x="84.301" y="145.874" fill="#FFFFFF" width="5.931" height="160.139"/>
	<rect x="94.68" y="144.392" fill="#FFFFFF" width="7.414" height="161.622"/>
	<rect x="109.508" y="145.874" fill="#FFFFFF" width="4.448" height="160.139"/>
	<rect x="121.37" y="145.874" fill="#FFFFFF" width="7.414" height="160.139"/>
	<rect x="142.129" y="145.874" fill="#FFFFFF" width="4.448" height="160.139"/>
	<rect x="151.026" y="145.874" fill="#FFFFFF" width="4.448" height="160.139"/>
	<rect x="176.233" y="145.874" fill="#FFFFFF" width="4.448" height="160.139"/>
	<rect x="183.646" y="145.874" fill="#FFFFFF" width="4.448" height="160.139"/>
	<rect x="165.853" y="145.874" fill="#FFFFFF" width="5.931" height="160.139"/>
	<rect x="192.543" y="145.874" fill="#FFFFFF" width="2.966" height="160.139"/>
	<rect x="198.474" y="145.874" fill="#FFFFFF" width="11.862" height="160.139"/>
	<rect x="217.75" y="145.874" fill="#FFFFFF" width="4.448" height="160.139"/>
	<rect x="225.164" y="145.874" fill="#FFFFFF" width="7.414" height="160.139"/>
	<rect x="237.026" y="145.874" fill="#FFFFFF" width="7.414" height="160.139"/>
	<rect x="251.854" y="145.874" fill="#FFFFFF" width="4.448" height="160.139"/>
	<rect x="259.268" y="145.874" fill="#FFFFFF" width="4.448" height="160.139"/>
	<rect x="277.061" y="145.874" fill="#FFFFFF" width="11.862" height="160.139"/>
	<rect x="293.371" y="145.874" fill="#FFFFFF" width="2.966" height="160.139"/>
</svg>
